<?xml version="1.0" encoding="UTF-8"?>
<!DOCTYPE svg PUBLIC "-//W3C//DTD SVG 1.1//EN" "http://www.w3.org/Graphics/SVG/1.1/DTD/svg11.dtd">
<!-- Creator: CorelDRAW -->
<svg xmlns="http://www.w3.org/2000/svg" xml:space="preserve" width="52.8746mm" height="52.8746mm" version="1.1" style="shape-rendering:geometricPrecision; text-rendering:geometricPrecision; image-rendering:optimizeQuality; fill-rule:evenodd; clip-rule:evenodd"
viewBox="0 0 7500.63 7500.63"
 xmlns:xlink="http://www.w3.org/1999/xlink"
 xmlns:xodm="http://www.corel.com/coreldraw/odm/2003">
 <defs>
  <style type="text/css">
   <![CDATA[
    .fil0 {fill:#A4A5A5}
    .fil1 {fill:#FEFEFE}
   ]]>
  </style>
 </defs>
 <g id="Слой_x0020_1">
  <metadata id="CorelCorpID_0Corel-Layer"/>
  <circle class="fil0" cx="3750.31" cy="3750.31" r="3750.31"/>
  <g id="_2379039106560">
   <path class="fil1" d="M1031.16 2190.11l2.55 20.5 1.53 59.74 4.06 53.22c3.49,99.57 16,200.61 26.47,297.7 9.43,87.37 22.91,205.75 43.39,289.8l14.75 76.13c8.01,94.76 54.71,249.68 79.78,343.65 22.73,79.44 51.01,168.1 79.91,251.37l57.76 157.19 28.02 59.86c13.82,53.58 127.73,263.54 160.54,322.87 20.56,37.17 46.83,69.65 62.73,108.63 6.65,3.11 10.23,10.55 16.87,20.73 16.16,31.38 54.52,83.41 75.74,111.49 14.7,19.48 24.97,34.66 40.32,55.03 16.67,22.12 29.38,34.93 41.99,58.45 10.34,-4.34 2.75,-2.54 7.83,4.17 16.13,23.76 45.08,49.28 57.18,73.86 1.49,0.94 10.03,5.18 15.39,11.41 10.65,12.34 4.79,3.65 10.24,18.24 0.95,0.35 2.37,0.17 2.7,1.4l21.66 21.34c16.43,17.32 18.06,13.28 26.09,31.92 6.54,2.43 0.07,-1.33 8.01,4.62 3.46,2.61 4.48,3.89 7.45,6.78 7.36,7.15 7.86,8.71 16.41,16.34 7.65,8.67 14.44,15.29 23.52,24.24 4.21,4.16 8.99,8.41 12.58,12.48 9.06,10.28 5.15,4.38 11.76,16.27 7.75,2.43 -0.1,-1.09 8.31,4.16 1.69,1.06 6.68,4.87 8.34,6.09 9.72,7.05 6.18,5.39 17.96,12.36 1.12,8.71 0.07,4.89 7.08,12.84 6.58,7.46 9.63,8.77 16.04,14.09 14.14,11.73 21.29,14.8 32.3,33.29l22.46 14.4c23.63,21.28 52.46,37.08 71.52,63.37l8.64 1.97c15.08,10.19 37.79,28.84 52.88,40.32 21.22,16.16 35.95,27.49 58.26,42.1 22.51,14.74 104.87,65.44 116.21,80.66l18.78 6.75c19.51,11.76 39.61,23.11 58.93,34.44 22.53,13.22 47.32,21.14 62.64,39.02 15.59,1.31 27,9.11 42.64,17.75 23.25,10.36 125.84,55.76 136.64,67.98l21.99 3.06c10.89,11.43 109.37,45.83 135.12,54.74 8.74,3.04 16.44,5.43 25.93,8.99l24.57 12.54c20.46,-0.31 36.73,9.77 60.06,14.33 13.38,8.85 83.1,26.31 106.72,32.73l88.05 22.34c1.66,0.4 14.61,3.57 16.19,4.11 14.89,5.14 4.18,-1.01 14.37,6.71l20.36 -0.47c49.3,25.78 449.4,73.23 556.65,74.32 14.88,0.14 28.95,-0.77 41.22,5.76 18.91,-5.82 37.52,-2.78 58.96,-2.13l200.19 0.88 0.95 -1212.82c50.25,-0.48 125.74,15.99 173.87,25.75 36.64,7.43 134.17,27.07 155.33,46.09l41.24 8.03 306.72 157.25 24.19 7.96c7.38,14.77 46.59,35.9 62.83,47.69 117.12,85.01 357,316.7 409.37,435.9l12.26 12.4c7.69,17.97 31.02,50.67 42.81,69.84 14.09,22.91 30.57,50.88 42.47,77.95 19.29,26.3 53.66,106.65 72.06,148.74 23.79,54.46 39.41,110.96 64.02,167.87l3.93 7.02 961.45 0.23c-4.7,-43.92 -93.82,-308.07 -111.6,-325.68l-8.44 -35.22 -4.7 -6.24c-0.6,-0.92 -3.39,-5.19 -4.13,-6.48 -2.24,-3.9 -5.84,-11.86 -8.19,-16.98l-45.66 -97.98c-8.58,-15.24 -16.67,-26.97 -17.56,-42.3l-19.34 -28c-12.19,-22.34 -44.39,-77.37 -46.16,-90.83l-11.35 -11.94c-13.48,-19.58 -5.83,-9.32 -7.7,-21.18 -23.83,-19.36 -53.64,-80.48 -73.03,-108.9 -24.39,-35.76 -50.36,-76.91 -76.12,-107.27 -6.53,-9.23 -13.25,-16.87 -19.39,-25.97 -7.67,-10.88 -15.36,-20.26 -22.44,-29.62 -3.35,-4.43 -6.13,-8.61 -11.21,-13.9 -9.31,-9.7 -2.24,-5.59 -11.41,-8.98 -6.78,-12.85 -7.49,-13.85 -15.56,-24.6 -2.28,-3.05 -6.67,-8.54 -8.13,-10.91 -6.81,-10.95 -0.61,4.71 -4,-8.7l-24.57 -23.43c-80.06,-89.74 -156.33,-178.87 -250.28,-256.15 -23.45,-19.28 -69.52,-66.08 -98.41,-84.63 -8.19,-6.64 -11.09,-9.14 -20.78,-17.21 -9.96,-8.28 -11.65,-6.21 -14.02,-15.26 -31.24,-15.79 -47.39,-37.95 -75.43,-52.78l-4.79 -7.6c-35.66,-17.8 -85.3,-55.66 -121.03,-79.65 -26.12,-17.53 -94.11,-62.87 -122.56,-73.55 -8.8,-3.18 -9.09,-0.17 -4.77,-6.82l-129.36 -63.84c11.66,-12.38 113.53,-76.52 129.42,-82.55l11.52 -7.8 71.33 -52.61c2.27,-8.3 3.82,-6.94 14.24,-14.85 15.45,-11.7 7.05,-8.33 21.73,-11.92 12.51,-21.17 105.92,-87.37 144.07,-128.42 20.67,-22.26 47.31,-43.51 69.94,-65.41 85.11,-82.36 185.38,-196.84 256.46,-290.08 13.39,-17.56 47,-68.15 62.83,-78.52 0.37,-8.37 -7.25,-6.85 3.26,-6.74 28.29,-55.25 117.41,-177.09 176.87,-293.39 47.49,-92.87 89.03,-183.31 124.99,-281.34 6.27,-17.12 9.08,-30.23 19.55,-43.37 -0.87,-13.25 1.76,-22.77 8.89,-33.72 19.26,-83.57 45.18,-149.97 65,-250.9l5.86 -24.82c4.06,-11.11 1.66,-5.59 5.33,-11.45l0.6 -18.07 -878.97 0.04 -22.91 77.07 -17.19 52.66c-8.78,13.33 -22.04,56.32 -30.07,75.44 -12.13,28.94 -25.7,56.79 -34.74,85l-1.15 5.01c-4.06,2.88 -78.29,147.84 -82.36,162.21 -10.87,12.61 -73.72,116.95 -79.31,129.94 -11.94,15.36 -16.33,21.09 -23.19,38.77l-117.54 153.38c-118.99,148.65 -262.83,285.33 -431.81,393.4l-40.64 25.22c-90.6,55 -284.18,142.98 -412.09,144.55l-0.38 -1342.29 -876.42 -0.34 -1.01 2353.32c-100.24,-15.62 -176.94,-65.74 -259.75,-100.21l-36.61 -23.65c-44.74,-19.25 -107.44,-65.52 -144.62,-94.94 -24.61,-19.48 -47.69,-35.97 -66.33,-53.95 -82.49,-79.55 -158.88,-148.33 -230.13,-246.19 -10.1,-13.89 -38.77,-58.63 -50.94,-65.13 -5.04,-12.03 -3.08,-4.41 -2.1,-15.21 -13.93,-9.96 -12.14,-11.49 -21.63,-25.7 -6.88,-10.31 -11.16,-16.26 -17.97,-26.91 -11.94,-18.73 -22,-35.54 -34.34,-56.02 -45.65,-75.71 -88.89,-160.45 -124.52,-241.43 -8.95,-20.34 -46.53,-117.36 -53.89,-126.1l-1.21 -5.01c-11.32,-43.15 -31.63,-92.43 -46.49,-138.23 -31.39,-96.83 -54.7,-186.39 -76.67,-284.24 -9.48,-42.16 -18.85,-113.78 -30.83,-149.12l1.42 -17.21c-25.11,-30.31 -53.88,-418.45 -58.97,-502 -3.65,-59.91 -2.2,-124.62 -8.06,-181.92l-929.5 -0.23 2.44 139.79z"/>
  </g>
 </g>
</svg>
