<?xml version="1.0" encoding="UTF-8"?>
<!DOCTYPE svg PUBLIC "-//W3C//DTD SVG 1.1//EN" "http://www.w3.org/Graphics/SVG/1.1/DTD/svg11.dtd">
<!-- Creator: CorelDRAW -->
<svg xmlns="http://www.w3.org/2000/svg" xml:space="preserve" width="52.8746mm" height="52.8746mm" version="1.1" style="shape-rendering:geometricPrecision; text-rendering:geometricPrecision; image-rendering:optimizeQuality; fill-rule:evenodd; clip-rule:evenodd"
viewBox="0 0 1871.61 1871.61"
 xmlns:xlink="http://www.w3.org/1999/xlink"
 xmlns:xodm="http://www.corel.com/coreldraw/odm/2003">
 <defs>
  <style type="text/css">
   <![CDATA[
    .fil0 {fill:#A4A5A5}
    .fil1 {fill:#FEFEFF}
   ]]>
  </style>
 </defs>
 <g id="Слой_x0020_1">
  <metadata id="CorelCorpID_0Corel-Layer"/>
  <circle class="fil0" cx="935.81" cy="935.81" r="935.81"/>
  <path class="fil1" d="M647.04 944.11c0,-18.5 -11.22,-25.12 -20.31,-37.66 -96.6,-133.17 -14.3,-377.53 161.94,-449.74 89.47,-36.66 198.49,-44.63 289.07,-9.96 16.25,6.22 31.79,12.9 45.29,21.37 7.51,4.72 13.28,8.6 20.91,13.87 8.71,6.02 11.4,9.81 19.07,15.71 48.32,37.16 84.06,123.23 84.06,188.42 0,92.62 -3.87,144.8 -35.11,231.57 -5.69,15.8 -14.79,37.84 -23.4,51.96 -18.02,29.56 -26.09,45.78 -53.44,71.21 -113.24,105.32 -235.89,29.99 -235.89,-59.07 0,-18.93 10.45,-54.09 15.5,-71.46 7.29,-25.08 13.46,-44.52 20.51,-69.35 20.08,-70.79 57.51,-159.97 10.04,-224.09 -45.04,-60.82 -164.8,-48.26 -205.15,72.45 -9.16,27.41 -17.09,66.57 -12.74,99.04 2.86,21.38 2.08,32.83 6.55,51.45 15.77,65.69 23.71,18.52 -2.8,127.5 -6.4,26.34 -14.26,56.46 -19.6,81.85 -12,57.05 -27.16,109.83 -39.12,166.68 -11.64,55.33 -19.04,67.29 -25.89,127.74 -7.76,68.45 -4.3,121.78 3.42,191.84 6.06,55.04 14.67,48.6 51.02,-4.07 32.62,-47.27 64.57,-96.35 86.5,-151.19 29.13,-72.84 43.06,-157.35 64.02,-234.55 3.82,-14.06 -2.28,-6.19 7.17,-13.12 10.96,41.05 103.41,86.96 165.23,86.96 75.54,0 139.44,-13.99 195.42,-50.97 146.11,-96.53 210.4,-262.58 210.4,-450.5 0,-88.71 -33.15,-176.45 -82.79,-241.87 -85.23,-112.33 -225.94,-178.44 -369.41,-178.44 -149.15,0 -255.39,33.15 -354.06,106.83 -86.86,64.86 -147.34,160 -171.76,265.94 -11.96,51.89 -10.9,82.68 -7.37,131.44 6.18,85.41 46.43,175.59 121.41,220.64 18.6,11.18 47.28,28.97 62.19,0.97 4.98,-9.34 19.15,-65.96 19.15,-79.41z"/>
 </g>
</svg>
