<?xml version="1.0" encoding="UTF-8"?>
<!DOCTYPE svg PUBLIC "-//W3C//DTD SVG 1.1//EN" "http://www.w3.org/Graphics/SVG/1.1/DTD/svg11.dtd">
<!-- Creator: CorelDRAW -->
<svg xmlns="http://www.w3.org/2000/svg" xml:space="preserve" width="52.8747mm" height="52.8747mm" version="1.1" style="shape-rendering:geometricPrecision; text-rendering:geometricPrecision; image-rendering:optimizeQuality; fill-rule:evenodd; clip-rule:evenodd"
viewBox="0 0 2574.36 2574.36"
 xmlns:xlink="http://www.w3.org/1999/xlink"
 xmlns:xodm="http://www.corel.com/coreldraw/odm/2003">
 <defs>
  <style type="text/css">
   <![CDATA[
    .fil0 {fill:#A4A5A5}
    .fil2 {fill:#FEFEFF}
    .fil1 {fill:#FEFEFF;fill-rule:nonzero}
   ]]>
  </style>
 </defs>
 <g id="Слой_x0020_1">
  <metadata id="CorelCorpID_0Corel-Layer"/>
  <g id="_2380749230736">
   <circle class="fil0" cx="1287.18" cy="1287.18" r="1287.18"/>
   <path class="fil1" d="M1487.32 1248.36l-502.37 0 0 -198.79 502.37 0c29.34,0 49.75,5.11 59.99,14.05 10.24,8.93 16.58,25.5 16.58,49.7l0 71.38c0,25.5 -6.34,42.06 -16.58,51 -10.24,8.93 -30.64,12.75 -59.99,12.75l0 -0.08zm34.47 -386.21l-749.88 0 0 850.14 213.05 0 0 -276.59 392.63 0 186.3 276.59 238.57 0 -205.41 -277.89c75.73,-11.22 109.74,-34.43 137.78,-72.68 28.04,-38.24 42.11,-99.4 42.11,-181l0 -63.75c0,-48.4 -5.13,-86.65 -14.07,-115.96 -8.94,-29.32 -24.22,-54.81 -45.93,-77.72 -22.92,-21.68 -48.44,-36.95 -79.09,-47.18 -30.64,-8.93 -68.93,-14.05 -116.08,-14.05l0 0.08z"/>
   <circle class="fil2" cx="1775.42" cy="694.95" r="94.03"/>
  </g>
 </g>
</svg>
