<?xml version="1.0" encoding="UTF-8"?>
<!DOCTYPE svg PUBLIC "-//W3C//DTD SVG 1.1//EN" "http://www.w3.org/Graphics/SVG/1.1/DTD/svg11.dtd">
<!-- Creator: CorelDRAW -->
<svg xmlns="http://www.w3.org/2000/svg" xml:space="preserve" width="52.8746mm" height="52.8746mm" version="1.1" style="shape-rendering:geometricPrecision; text-rendering:geometricPrecision; image-rendering:optimizeQuality; fill-rule:evenodd; clip-rule:evenodd"
viewBox="0 0 7500.63 7500.63"
 xmlns:xlink="http://www.w3.org/1999/xlink"
 xmlns:xodm="http://www.corel.com/coreldraw/odm/2003">
 <defs>
  <style type="text/css">
   <![CDATA[
    .fil0 {fill:#A4A5A5}
    .fil1 {fill:#FEFEFE}
   ]]>
  </style>
 </defs>
 <g id="Слой_x0020_1">
  <metadata id="CorelCorpID_0Corel-Layer"/>
  <circle class="fil0" cx="3750.31" cy="3750.31" r="3750.31"/>
  <path class="fil1" d="M790.21 3721.7c0,188.32 299.42,246.72 534.2,311.56 977.35,269.94 702.5,282.28 1981.94,-570.59 272.89,-181.92 990.46,-724.8 1236.95,-745.32 -4.72,212.13 -217.06,362.23 -336.97,482.36 -149.18,149.4 -284.98,258.52 -436.12,409.67l-636.06 606.15c-381.33,319.93 -87.87,451.29 212.26,676.63l990.67 674.43c219.18,147.26 384.99,221.86 511.76,243.1l139.6 0c264.09,-55.4 279.76,-452.38 336.17,-804.5 71.61,-447.13 460.91,-2756.7 460.91,-3107.18 0,-337.52 -387.74,-210.9 -562.7,-139.81l-1288.1 535.58c-216.63,95.8 -432.56,176.67 -656.57,268.48l-1925.48 796.84c-152.07,65.67 -562.46,187.97 -562.46,362.6z"/>
 </g>
</svg>
