<svg width="80" height="76" viewBox="0 0 80 76" fill="none" xmlns="http://www.w3.org/2000/svg">
<path fill-rule="evenodd" clip-rule="evenodd" d="M59.254 47.7621L63.547 61.0263L68.4972 47.7296L68.6998 47.1857H69.2818H74.5474H75.3842V48.0148V48.8791V49.6668L74.5866 49.7051C74.2154 49.7232 73.9123 49.7657 73.6779 49.832C73.5311 49.8739 73.4393 49.9129 73.4047 49.9484H73.4049L73.4037 49.9495L73.3945 49.9617L73.3916 49.9643L73.3907 49.9637C73.3738 49.9811 73.3605 49.9963 73.3511 50.0079L73.3517 50.0083C73.3391 50.0236 73.3244 50.045 73.3081 50.0716L73.3069 50.0706C73.2488 50.1644 73.2196 50.2796 73.2196 50.4159C73.2196 50.4805 73.2215 50.5327 73.2253 50.5708V50.5741C73.2291 50.6148 73.2393 50.6801 73.2552 50.7699L73.2571 50.7817V50.7847L73.2704 50.8599V50.8665L73.2827 50.9415V50.9446C73.31 51.1124 73.3299 51.2443 73.3413 51.3341L76.1431 66.1756L76.1498 66.2111L76.1514 66.2209L76.1498 66.2213L76.1564 66.2659L76.1585 66.2651L76.1716 66.3401L76.1692 66.3406C76.187 66.4367 76.2195 66.5832 76.266 66.7834C76.294 66.9045 76.3281 67.0267 76.3675 67.1473C76.4085 67.2752 76.4536 67.4012 76.5027 67.5253L76.5042 67.5243C76.5774 67.6851 76.669 67.841 76.7788 67.9909C76.8905 68.143 77.0193 68.2881 77.164 68.4244L77.1673 68.427L77.1739 68.4335C77.2208 68.477 77.2752 68.5177 77.3356 68.5525C77.3985 68.5892 77.4675 68.6204 77.5413 68.6453C77.7125 68.7029 77.921 68.7323 78.1653 68.7323H78.3271H79.1641V69.5614V70.4255V71.255H78.3271H70.5094H69.6726V70.4255V69.5614V68.7152L70.5291 68.7354C70.9121 68.7445 71.2297 68.726 71.4816 68.6804C71.6656 68.647 71.7932 68.6047 71.8637 68.5546L71.8701 68.5511L71.8734 68.549L71.8717 68.5464C71.9061 68.5217 71.9341 68.5005 71.9533 68.4839C71.9775 68.4637 71.9984 68.4444 72.0143 68.4284C72.0551 68.387 72.0819 68.3513 72.0954 68.3219V68.2488V68.2328H72.0987C72.0985 68.1355 72.0916 68.0088 72.0778 67.8555L72.0807 67.8554L72.075 67.7926H72.074C72.0636 67.6892 72.0479 67.5768 72.0275 67.4563L72.0261 67.4478L72.0033 67.3124L71.9798 67.1744C71.9554 67.0296 71.9141 66.7976 71.8499 66.4382H71.8513L69.5454 54.4597L64.3128 68.2522L64.1086 68.7897H63.5315H62.2716H61.6717L61.4806 68.2197L56.9372 54.6849L54.5729 66.5042L54.5708 66.5294L54.5691 66.5449V66.5578C54.5627 66.6103 54.5518 66.6653 54.5378 66.7208C54.5246 66.7727 54.5087 66.8275 54.4911 66.8832C54.4721 66.9995 54.4555 67.1114 54.4411 67.2191C54.4342 67.2699 54.4283 67.3319 54.4233 67.4034C54.4202 67.4487 54.4188 67.5073 54.4188 67.5768C54.4188 67.7162 54.4416 67.849 54.4868 67.9741C54.5355 68.1102 54.6097 68.2406 54.7072 68.3645L54.7098 68.3676L54.7108 68.3669C54.7243 68.3834 54.7387 68.3987 54.7535 68.4114C54.7779 68.4323 54.8047 68.4518 54.8322 68.4687C55.063 68.6105 55.4401 68.6996 55.9631 68.7355L56.7444 68.7898V69.5615V70.4256V71.2551H55.9073H49.1883H48.3517V70.4256V69.5615V68.811L49.1097 68.7388C49.4681 68.7052 49.7696 68.6323 50.0129 68.5221C50.22 68.4276 50.3846 68.3046 50.5056 68.1533C50.8281 67.749 51.0745 67.1192 51.243 66.2653H51.2434L54.0858 51.6694L54.1472 51.3086V51.3053L54.2118 50.9332L54.2146 50.9167C54.2276 50.8408 54.2352 50.7952 54.2378 50.7766C54.2457 50.7174 54.2514 50.6722 54.2537 50.6447V50.6386C54.2601 50.5712 54.2632 50.4858 54.2632 50.3843C54.2632 50.2658 54.2471 50.1624 54.2155 50.0745C54.1876 49.9965 54.1449 49.9255 54.0882 49.8625C54.0668 49.839 54.0054 49.8119 53.9053 49.7844C53.7168 49.7318 53.4687 49.7052 53.1617 49.7052V49.7085H53.0325H52.1957V48.8792V48.0149V47.1858H53.0325H58.4596L59.0673 47.186L59.254 47.7621ZM27.5044 26.603H52.0395V27.1749H27.5044V26.603ZM28.0525 8.96876H51.4911V10.0517H28.0525V8.96876ZM29.8911 10.5564L28.6687 25.7733H31.6149V10.5564H29.8911ZM42.1512 10.5564L41.4847 25.7733H44.5031L43.9253 10.5564H42.1512ZM35.7073 10.5564L35.041 25.7733H38.0589L37.4814 10.5564H35.7073ZM49.6528 10.5564H47.9287V25.7733H50.8752L49.6528 10.5564ZM39.6713 0L28.1414 8.30848H51.4024L39.6713 0ZM6.03882 33.0656L7.72375 38.2717L9.66792 33.0491L9.76919 32.7769H10.0602H12.2105H12.6286V33.1918V33.5449V33.9386L12.2299 33.9579C12.0848 33.9644 11.9664 33.9809 11.8761 34.0068C11.8293 34.0199 11.8032 34.0293 11.7987 34.034L11.7938 34.0406L11.7909 34.0432H11.7906L11.7811 34.0535L11.7697 34.0688V34.0719C11.7534 34.0982 11.7448 34.132 11.7448 34.172C11.7448 34.2101 11.7496 34.2545 11.7583 34.3036V34.3079L11.7761 34.4176L11.7778 34.4275L11.7911 34.5213L12.9371 40.5929L12.9402 40.6124L12.9413 40.6226L12.9435 40.6359L12.9444 40.6355L12.9499 40.6665L12.9492 40.6667C12.9576 40.7113 12.9701 40.7682 12.9865 40.8378C13.0069 40.9259 13.0377 41.023 13.0787 41.1262L13.0792 41.1259C13.1082 41.1898 13.1421 41.2493 13.1815 41.3036L13.1831 41.3047L13.1826 41.3052C13.2232 41.3602 13.2742 41.4161 13.3337 41.4721C13.4065 41.5405 13.5249 41.5746 13.6873 41.5746H13.7535H14.1719V41.989V42.3421V42.7562H13.7535H10.5616H10.1432V42.3421V41.989V41.5692L10.5682 41.5762L10.6256 41.5769V41.5773C10.6699 41.5777 10.7181 41.5762 10.7677 41.5733C10.799 41.5719 10.831 41.5691 10.8623 41.5661C10.9704 41.5546 11.0399 41.5379 11.0696 41.5167C11.0978 41.4965 11.1189 41.4782 11.1322 41.4612V41.4528C11.1322 41.3916 11.1305 41.3402 11.1272 41.3023L11.1256 41.3007C11.1208 41.2438 11.1139 41.1902 11.1059 41.1418L11.0717 40.9408L11.0336 40.725H11.0341L10.1435 36.1023L8.10351 41.481L8.00104 41.7499H7.71264H7.19819H6.89816L6.80258 41.465L5.03914 36.2114L4.1305 40.7542C4.12695 40.7836 4.12243 40.8134 4.11508 40.8442L4.11129 40.8571L4.10322 40.8867L4.09824 40.9027L4.0954 40.9114C4.0878 40.9575 4.08211 41.0007 4.07666 41.0407V41.0418L4.07001 41.1159H4.0693L4.06835 41.1784C4.06835 41.2764 4.10251 41.3686 4.16987 41.4539C4.18505 41.4725 4.21921 41.4924 4.27185 41.5119C4.3589 41.5439 4.47773 41.5658 4.62739 41.5761L5.01802 41.6032V41.9889V42.342V42.7561H4.59965H1.85618H1.43779V42.342V41.9889V41.6137L1.81703 41.5778C1.95437 41.5648 2.06963 41.5366 2.16118 41.495C2.23423 41.4626 2.29283 41.4186 2.33409 41.3669L2.33552 41.3646L2.33741 41.3622L2.33789 41.3616C2.34999 41.3461 2.36469 41.3256 2.3801 41.3019C2.39885 41.2725 2.41402 41.2471 2.42564 41.2257C2.50582 41.0769 2.57104 40.8774 2.6199 40.6284H2.62014L3.78065 34.6692H3.78089L3.83188 34.3716V34.3704L3.83473 34.354L3.83544 34.3546L3.83994 34.3267L3.84422 34.2947L3.84304 34.2942C3.84849 34.2481 3.85157 34.2028 3.85157 34.1588C3.85157 34.117 3.84707 34.0827 3.83806 34.058H3.8364C3.82833 34.0352 3.81553 34.014 3.79964 33.9962V33.995C3.79749 33.9924 3.78896 33.9946 3.76169 33.987C3.69504 33.9685 3.60017 33.9593 3.47873 33.9593H3.47209H3.45217H3.43225H3.42584H3.00745V33.5447V33.1916V32.7767H3.42584H5.6418H5.9454L6.03886 33.0654L6.03882 33.0656ZM21.0967 34.2244V33.8975V33.5876L21.3991 33.5007C21.5469 33.4584 21.6882 33.4083 21.8215 33.3519C21.9479 33.2983 22.067 33.2376 22.1749 33.1721L22.1778 33.1708C22.191 33.1626 22.2093 33.1492 22.2316 33.1311C22.2503 33.1158 22.2665 33.101 22.28 33.0869L22.2814 33.0848C22.3725 32.9891 22.438 32.848 22.478 32.6616L22.549 32.3326H22.8867H23.4538H23.7614L23.8523 32.6276L26.2663 40.4577L26.2696 40.469L26.2805 40.5085L26.2812 40.508L26.2992 40.5653L26.2982 40.5655L26.2997 40.5685L26.3049 40.5843L26.3064 40.5874L26.3116 40.6031L26.3149 40.6163L26.3299 40.6694H26.3305C26.3525 40.7328 26.3682 40.7763 26.3772 40.7991C26.3922 40.8372 26.4085 40.8758 26.4256 40.9139V40.9155C26.5039 41.0902 26.5907 41.227 26.6844 41.3247L26.686 41.3264L26.6896 41.3304L26.6891 41.3307C26.6998 41.3413 26.7128 41.3521 26.7268 41.3631C26.747 41.3789 26.7657 41.3925 26.7814 41.4017H26.7828C26.9102 41.4802 27.0949 41.5406 27.3359 41.581L27.6841 41.6403V41.9891V42.3422V42.7549H27.2657H24.153H23.7346V42.3422V41.9891V41.5867L24.1432 41.5763C24.2903 41.5726 24.4103 41.5608 24.5018 41.5406V41.54C24.5483 41.5296 24.578 41.5216 24.5906 41.5151L24.5993 41.5071L24.6043 41.5021L24.6076 41.5002L24.6086 41.4988V41.4974C24.6092 41.4959 24.6069 41.4959 24.6067 41.4901L24.605 41.4659C24.605 41.4219 24.5998 41.3775 24.5901 41.3333C24.5835 41.3037 24.5742 41.2668 24.5638 41.2268L24.5308 41.1156L24.5166 41.0691L24.5161 41.0573L24.5125 41.0503L24.5028 41.0159L24.1935 39.9333H21.5105L21.1322 41.0369L21.1239 41.058L21.1168 41.078H21.1175L21.1089 41.1159L21.0883 41.2379C21.0873 41.2921 21.0852 41.3504 21.081 41.4134V41.4153L21.0783 41.4529H21.078L21.0764 41.4844C21.1195 41.5016 21.1658 41.5173 21.2137 41.5319C21.2796 41.5514 21.3503 41.5693 21.4252 41.5841L21.7618 41.6518V41.9891V42.3422V42.7563H21.3434H18.7053H18.2869V42.3422V41.9891V41.6534L18.6204 41.5841C18.7767 41.5521 18.9142 41.5072 19.0335 41.4515C19.1417 41.4007 19.2342 41.3396 19.3096 41.2693C19.3921 41.193 19.4647 41.106 19.5264 41.0108C19.5883 40.9149 19.6409 40.8065 19.6832 40.688H19.6836L21.7407 34.8465L21.7481 34.8254L21.7621 34.7977C21.7642 34.7932 21.7668 34.7859 21.7689 34.7774H21.7694L21.7953 34.6745H21.7958L21.8034 34.642L21.8064 34.6209L21.8086 34.5997H21.8048V34.5981L21.7951 34.5984L21.7725 34.5994V34.5995L21.7509 34.601V34.6013L21.7059 34.6048V34.605L21.6772 34.608L21.649 34.6165L21.0966 34.8043L21.0967 34.2244ZM21.0372 41.4685L21.0355 41.4667L21.035 41.4673L21.0372 41.4685ZM23.7301 38.5564L22.8684 35.8238L21.9605 38.5564H23.7301ZM39.7754 35.5539H39.4457H39.157L39.055 35.285C38.9841 35.0982 38.8852 34.928 38.7595 34.7759C38.6322 34.6222 38.477 34.4858 38.2951 34.3688L38.2956 34.3678L38.275 34.3549V34.3552C38.2252 34.3239 38.1713 34.2922 38.1137 34.2612C38.0646 34.2344 38.0093 34.2071 37.9498 34.1803L37.95 34.1793C37.6846 34.0588 37.4078 33.9897 37.121 33.9723H37.0586H37.0055H36.8803H36.8618L36.8383 33.9758L36.8068 33.9826L36.7842 33.984L36.7683 33.9852V33.9853C36.687 33.9912 36.6032 34.0037 36.5193 34.0199C36.4289 34.038 36.3461 34.0587 36.2729 34.0822C35.8526 34.2171 35.4501 34.4858 35.0673 34.8868C34.5358 35.4441 34.2699 36.4043 34.2699 37.7668H34.2715C34.2715 38.7916 34.5184 39.6935 35.0115 40.4723L35.0125 40.4718L35.0144 40.4746L35.0191 40.4843C35.0863 40.5889 35.1565 40.6862 35.2291 40.7734C35.2988 40.8573 35.3756 40.9365 35.4577 41.0113C35.8633 41.378 36.3798 41.5611 37.0055 41.5611H37.011V41.5632C37.3067 41.5627 37.588 41.5237 37.8532 41.4461C37.9357 41.4224 38.0216 41.3921 38.1094 41.3566C38.2782 41.2884 38.4405 41.2036 38.5951 41.1018C39.0415 40.808 39.3353 40.3858 39.4755 39.8367L39.5557 39.5224H39.8811H40.2105H40.646L40.6275 39.953L40.5483 41.783L40.5393 41.9898L40.3685 42.1069C40.3095 42.1478 40.2442 42.1889 40.1743 42.231V42.2329C40.1143 42.2689 40.0469 42.3058 39.9731 42.3438L39.9684 42.3455L39.9658 42.3469L39.9661 42.3472L39.9163 42.3724L39.9099 42.3755L39.8598 42.3997L39.8546 42.4011C39.7578 42.4465 39.6632 42.4864 39.5731 42.5186C39.1184 42.6968 38.6728 42.8106 38.2387 42.8581C38.0328 42.8804 37.8519 42.8978 37.6979 42.9086C37.5312 42.9206 37.3927 42.9269 37.2826 42.9269H37.1045V42.9253H37.0056V42.9269H37.0016V42.9253C36.3292 42.9243 35.7144 42.8019 35.1596 42.5574L35.159 42.5589C35.076 42.5222 34.9858 42.478 34.8905 42.4272H34.8888C34.441 42.1891 34.0369 41.8652 33.678 41.4574C32.8415 40.5073 32.3662 39.4568 32.2514 38.3073H32.2512L32.2484 38.2815V38.28L32.2451 38.2478V38.2419L32.2425 38.2114H32.2423C32.2366 38.1495 32.2323 38.0953 32.23 38.0499V38.0447L32.225 37.9272V37.9159L32.2233 37.7981L32.2216 37.793C32.2216 37.7326 32.224 37.6517 32.2283 37.5513C32.2328 37.4528 32.238 37.3727 32.2432 37.308L32.2444 37.2918L32.246 37.285L32.2524 37.2222V37.2124L32.2602 37.1494L32.2619 37.1461C32.2783 37.022 32.2996 36.9056 32.3252 36.798C32.4265 36.2726 32.6103 35.7693 32.8755 35.29C33.1404 34.8117 33.4884 34.3552 33.9188 33.9215C34.365 33.4723 34.8977 33.135 35.5167 32.9108C36.1237 32.691 36.8094 32.581 37.5729 32.581H37.5885V32.5826C37.8463 32.5833 38.0823 32.5951 38.2948 32.6179H38.2996L38.3982 32.6294L38.403 32.6308C38.5854 32.6546 38.755 32.6863 38.9108 32.7263L38.9162 32.7277C38.972 32.742 39.0237 32.7571 39.0673 32.7693H39.069L39.0687 32.7704C39.1216 32.7852 39.1699 32.8 39.2138 32.8139C39.4636 32.8938 39.6948 32.9904 39.9057 33.1018L40.1165 33.2135L40.1263 33.4516L40.1922 35.125L40.209 35.554L39.7754 35.5539ZM47.2636 42.3423V41.9892V41.5964L47.6623 41.5764C47.7911 41.5701 47.8962 41.5496 47.9752 41.5155C48.03 41.4918 48.0722 41.4601 48.1004 41.4213H48.1009L48.1015 41.4202H48.1032C48.1093 41.4117 48.1195 41.3948 48.1314 41.3722C48.1418 41.3534 48.1516 41.3334 48.1594 41.3132C48.2128 41.1818 48.2396 41.002 48.2396 40.7735V34.63V34.6215H48.2412C48.2411 34.46 48.2275 34.3336 48.2023 34.2438C48.1985 34.2299 48.194 34.2177 48.1898 34.2076L48.1644 34.1972L48.1627 34.1958C48.0899 34.1678 47.9901 34.1537 47.8665 34.1537V34.1556C47.7386 34.1556 47.5795 34.1763 47.3893 34.2176L47.389 34.216L47.3825 34.2174C47.3619 34.2219 47.3389 34.2282 47.3161 34.2346L47.2469 34.2581L47.2471 34.2584C47.1159 34.305 46.9817 34.3734 46.8453 34.4634L46.8393 34.4672L46.8401 34.4683L46.7813 34.5061V34.5058L46.7346 34.5385C46.6575 34.5954 46.5807 34.6623 46.5053 34.7402L46.5037 34.7418C46.4493 34.7973 46.3934 34.8612 46.3369 34.9313C46.2847 34.9964 46.2288 35.0732 46.1704 35.1602L46.0461 35.345H45.8222H45.4923H44.9701L45.0853 34.8398L45.4812 33.1011L45.5547 32.7769H45.8882H52.4699H52.8032L52.8769 33.1011L53.2726 34.8398L53.3873 35.345H52.8655H52.5359H52.3046L52.1813 35.1492C52.1044 35.0265 52.0245 34.9181 51.9434 34.825C51.8625 34.7317 51.78 34.6525 51.6972 34.5876C51.6075 34.5171 51.5162 34.4546 51.4247 34.401H51.423C51.3341 34.349 51.2477 34.3065 51.1654 34.2731V34.2736L51.1567 34.2698L51.1109 34.2541L51.0561 34.2362C50.9752 34.2113 50.8996 34.193 50.8282 34.1819H50.8267C50.7778 34.1737 50.7214 34.1671 50.6597 34.1619H50.6581C50.6064 34.1577 50.5551 34.1556 50.5046 34.1556C50.4126 34.1556 50.3334 34.1633 50.2681 34.1786C50.2143 34.1911 50.1716 34.2073 50.1415 34.2261V34.228C50.1247 34.2383 50.1166 34.3723 50.1166 34.6299H50.1183V40.7735V40.7817H50.1166C50.1168 40.9427 50.132 41.0847 50.1605 41.2055V41.207L50.1726 41.2533V41.257C50.1932 41.328 50.2195 41.3858 50.2508 41.4291C50.2746 41.462 50.3149 41.4909 50.3708 41.514C50.4562 41.5487 50.5694 41.5697 50.7088 41.5765L51.1078 41.5953V41.9892V42.3423V42.7565H50.6892H47.6819H47.2635L47.2636 42.3423ZM64.9559 33.1269L65.2462 34.9179L65.3237 35.3971H64.8344H64.5048H64.1983L64.1058 35.1071L64.1047 35.1029V35.1014C64.0919 35.0612 64.0807 35.0288 64.0719 35.0067L64.0703 35.0052C64.0551 34.9672 64.0423 34.9368 64.0326 34.9166C63.9676 34.7829 63.8831 34.6733 63.7802 34.5908C63.6936 34.521 63.6045 34.4604 63.5141 34.4091H63.5124C63.4211 34.3577 63.3327 34.3168 63.248 34.2881H63.2447L63.2416 34.2866V34.287L63.1683 34.2632L63.1114 34.2461C63.0056 34.2167 62.9045 34.1953 62.8101 34.1831L62.7919 34.1807L62.7914 34.1818L62.7231 34.1741V34.173L62.6645 34.1673C62.5844 34.1598 62.507 34.1555 62.4337 34.1555H60.825H60.8178V34.1539C60.7377 34.1544 60.6701 34.1617 60.615 34.176C60.6032 34.1788 60.5911 34.1831 60.5804 34.187L60.5807 34.1874L60.5563 34.1986C60.5392 34.2344 60.5312 34.304 60.5312 34.4076H60.5295V36.6724H62.1703V36.6741C62.3306 36.6741 62.4696 36.6628 62.5863 36.6412C62.6765 36.6243 62.7471 36.6012 62.7972 36.5723L62.7977 36.5737C62.8036 36.5686 62.8133 36.5512 62.8252 36.5215C62.8548 36.4459 62.8717 36.3391 62.8748 36.2033L62.884 35.7966H63.2915H63.6345H64.0528V36.2115V38.5513V38.9662H63.6345H63.2915H62.8748V38.5513V38.4601H62.8731V38.4077V38.3938V38.3922C62.8657 38.3581 62.8537 38.324 62.8363 38.2899V38.2883C62.8112 38.2387 62.7766 38.1902 62.7336 38.1437H62.732C62.703 38.1115 62.6706 38.0882 62.6366 38.0741C62.6006 38.0586 62.5543 38.0511 62.5 38.0511H60.5312V40.9567C60.5312 41.1076 60.5456 41.2183 60.5736 41.2867H60.5744L60.5739 41.2872L60.5744 41.2878L60.5733 41.2885C60.5723 41.2906 60.5695 41.2911 60.5662 41.2913L60.5617 41.2934L60.5615 41.2939C60.632 41.3195 60.7323 41.3393 60.8611 41.3538C61.006 41.3703 61.1881 41.3785 61.4054 41.3785H62.4082C62.6722 41.3785 62.9091 41.3562 63.1179 41.3127C63.318 41.2709 63.4945 41.21 63.6465 41.1298L63.6464 41.1293L63.649 41.1279L63.6506 41.1265C63.686 41.1077 63.727 41.083 63.7716 41.0534H63.7733C63.8138 41.0266 63.8532 40.9979 63.8904 40.968C64.0965 40.8033 64.2815 40.5755 64.444 40.2852L64.5636 40.0711H64.8086H65.1382H65.6283L65.5498 40.5506L65.2466 42.4069L65.1895 42.7569L64.8349 42.7564H58.0816H57.6633V42.3422V41.9891V41.5952L58.0622 41.5764C58.2 41.57 58.3084 41.5498 58.3886 41.516V41.5155C58.4334 41.4964 58.464 41.4741 58.4789 41.4501L58.4796 41.4508L58.4865 41.4397L58.4855 41.4388L58.5194 41.3788L58.5491 41.3201V41.3182C58.5929 41.2195 58.6192 41.1142 58.6278 41.0039L58.6288 40.9893L58.6326 40.9668L58.6378 40.924L58.6394 40.8843V40.7472V34.7865V34.6493L58.6378 34.6096C58.6366 34.5938 58.6347 34.5792 58.6326 34.5682L58.629 34.5477L58.6279 34.5296L58.6264 34.5113H58.6269L58.6198 34.4518C58.6172 34.433 58.6122 34.4107 58.6067 34.3862C58.583 34.2823 58.5403 34.1806 58.4789 34.0835C58.464 34.0595 58.4334 34.0374 58.3885 34.0181C58.3084 33.9841 58.2002 33.9639 58.0638 33.9578L57.6632 33.9397V33.5448V33.1917V32.7785H58.0816H64.5448H64.9001L64.9563 33.1269L64.9559 33.1269ZM60.5495 34.2019L60.5469 34.2035L60.5476 34.2045L60.5495 34.2019ZM60.5595 34.1929L60.5612 34.1918L60.5602 34.1915L60.5595 34.1929ZM73.2119 39.306V40.7735C73.2119 41.0866 73.2629 41.3056 73.363 41.4291C73.3969 41.4711 73.4455 41.505 73.5065 41.5282L73.5061 41.5294C73.5844 41.5597 73.6857 41.5747 73.8093 41.5747H73.8289H73.8489H74.2673V41.9891V42.3422V42.7564H73.8489H70.7755H70.3571V42.3422V41.9891V41.5961L70.7558 41.5764C70.8886 41.5695 70.9947 41.551 71.0722 41.5202C71.1166 41.5026 71.1462 41.484 71.1595 41.4652L71.1635 41.4595L71.1625 41.4589L71.1979 41.4044L71.2252 41.3574V41.3559C71.269 41.2699 71.2975 41.1761 71.3101 41.0762L71.3117 41.0696L71.3136 41.056H71.3127L71.316 41.0311L71.3171 41.0315L71.3186 41.0165L71.32 40.9439V40.7734V34.7603V34.6233C71.32 34.5958 71.3176 34.5683 71.3134 34.5424L71.3096 34.5206L71.3084 34.5051C71.3023 34.4298 71.2873 34.356 71.2639 34.2853V34.2836C71.2404 34.2124 71.2069 34.1421 71.1647 34.0735C71.1521 34.0535 71.1249 34.0338 71.0838 34.0166C71.0056 33.9839 70.8967 33.9642 70.7575 33.9578L70.3571 33.9397V33.5448V33.1918V32.7769H70.7755H74.6667C75.8573 32.7769 76.7195 33.0235 77.2529 33.5164L77.2519 33.5175L77.255 33.5201L77.2583 33.5232C77.3371 33.5958 77.404 33.6623 77.459 33.7208C77.5228 33.7888 77.5835 33.8586 77.6397 33.9282C77.9326 34.292 78.1269 34.6848 78.2239 35.1058H78.2244L78.225 35.1103L78.226 35.1138H78.2257C78.2451 35.1923 78.2624 35.2692 78.2752 35.3444C78.2878 35.417 78.2985 35.4977 78.3065 35.5844L78.3082 35.5875L78.3108 35.6176V35.6187L78.3153 35.6756V35.6807L78.3196 35.7369V35.7421C78.3258 35.849 78.3293 35.9447 78.3293 36.0281H78.3279C78.3279 36.4672 78.2752 36.8539 78.1713 37.1872C78.0598 37.5443 77.8898 37.8433 77.6611 38.0828C77.4576 38.2967 77.2402 38.4817 77.0103 38.6366C76.7803 38.7915 76.5388 38.9142 76.2874 39.0043V39.0052C76.1437 39.0574 75.9983 39.1018 75.8529 39.1373C75.7044 39.1738 75.5609 39.2008 75.4229 39.217L75.3826 39.2222H75.3792L75.2799 39.2337H75.2768L75.1819 39.2438C75.0268 39.2603 74.888 39.2716 74.7668 39.2779H74.7633L74.1834 39.3042L74.1654 39.3059H73.2116L73.2119 39.306ZM73.2104 34.7735V37.9273H73.8356H73.862H73.8885V37.929L73.9865 37.9287L74.1053 37.9275L74.2049 37.9259L74.36 37.9226H74.3617C74.4231 37.9212 74.5021 37.916 74.5963 37.908H74.5977C74.6864 37.9003 74.7671 37.8918 74.8389 37.8817L74.847 37.8803V37.8806H74.8478C74.896 37.8726 74.9465 37.862 74.9972 37.8498C75.0416 37.8392 75.0914 37.8246 75.1445 37.8077C75.3954 37.7259 75.6343 37.5929 75.8596 37.4086L75.8607 37.4076V37.406C75.8932 37.3804 75.9238 37.3493 75.952 37.3159C75.9843 37.2776 76.0128 37.2379 76.0365 37.198C76.1895 36.9394 76.2663 36.5489 76.2663 36.0283C76.2663 35.4425 76.1627 35.0319 75.9554 34.7973L75.9535 34.7952L75.9518 34.7933C75.92 34.7573 75.8864 34.7218 75.8524 34.688L75.8518 34.6889C75.8169 34.6541 75.7825 34.6222 75.7493 34.593L75.7498 34.5925C75.5826 34.4473 75.4028 34.3424 75.2126 34.2787L75.1917 34.2726V34.2723L75.1075 34.2476L75.0366 34.2293C74.9142 34.1997 74.7921 34.1804 74.6737 34.1729C74.5592 34.1658 74.4709 34.1614 74.4048 34.1588C74.35 34.1564 74.2833 34.1555 74.205 34.1555L74.2034 34.1536L74.0933 34.1531C73.8035 34.153 73.5746 34.1668 73.4086 34.1947L73.3422 34.2074C73.2985 34.2175 73.3142 34.1778 73.299 34.1957C73.276 34.223 73.2582 34.2544 73.2468 34.2883V34.2899C73.2328 34.3334 73.2255 34.3856 73.2255 34.4465V34.466V34.4858V34.5711V34.6298V34.6362V34.6425V34.706L73.212 34.746V34.7735L73.2104 34.7735ZM12.4083 50.4681H12.4073C12.4038 50.4702 12.4058 50.4695 12.4083 50.4681ZM8.43526 68.2521H15.2364H15.2449V68.2552C15.7205 68.2548 16.0903 68.2175 16.3538 68.1437C16.3953 68.1322 16.4254 68.1228 16.442 68.1167L16.4453 68.1132C16.5008 68.093 16.5034 68.1271 16.5136 68.1097L16.5165 68.1045L16.5191 68.1056C16.5281 68.0891 16.5435 68.0572 16.5641 68.012C16.5833 67.9697 16.5985 67.9335 16.609 67.9032C16.6865 67.6834 16.7254 67.4037 16.7254 67.064V50.8963C16.7254 50.6836 16.705 50.5578 16.6638 50.5193L16.6636 50.5191C16.6486 50.505 16.6297 50.4883 16.6079 50.4702L16.6045 50.4669L16.5464 50.4218L16.5474 50.4201C16.4573 50.3534 16.3638 50.3035 16.268 50.2721L16.267 50.2749L16.2419 50.2666L16.242 50.265L16.2084 50.2546L16.2082 50.2551L16.1408 50.237C16.0614 50.217 15.9898 50.2055 15.9269 50.2013L15.7206 50.1895L15.5918 50.1886H14.1381H14.0249H13.9118C13.2589 50.1886 12.7594 50.281 12.4135 50.4646L12.4147 50.466L12.4135 50.4665L12.414 50.4669H12.4134L12.4135 50.4665L12.414 50.4669C12.3965 50.4853 12.3756 50.5135 12.3531 50.5504C12.1391 50.8969 11.9769 51.5753 11.8668 52.5846H11.8662L11.8656 52.5924C11.8302 52.9447 11.797 53.2548 11.7666 53.5199C11.7225 53.9059 11.6839 54.2298 11.6514 54.49C11.4396 56.1738 11.1538 58.0535 10.7947 60.128C10.5404 61.5966 10.1768 63.1034 9.70556 64.6468C9.34599 65.8232 8.92191 67.0256 8.43545 68.2521L8.43526 68.2521ZM0.402436 74.9506L1.69435 69.2518L1.83691 68.6221L2.49199 68.6078C2.94524 68.5974 3.33778 68.5711 3.6677 68.5295C3.96393 68.4923 4.20159 68.4425 4.37947 68.3814L4.379 68.3804L4.38303 68.379H4.38611C4.41126 68.3703 4.43616 68.3592 4.45987 68.347V68.3435C4.49142 68.327 4.52107 68.3087 4.54787 68.2894C4.75304 68.1413 4.95725 67.8729 5.15838 67.4858L5.15932 67.4859L5.18732 67.4302L5.18588 67.4296L5.22217 67.3553H5.22241C5.28551 67.2234 5.34172 67.0988 5.39058 66.9837C5.42782 66.8958 5.46695 66.7982 5.50632 66.6927L5.50346 66.6915C5.56206 66.5355 5.60403 66.4201 5.62656 66.3538L5.63487 66.3305L5.63416 66.3303L5.69772 66.1568H5.69724L5.76911 65.9568C5.92044 65.5323 6.07342 65.092 6.2238 64.644L6.22189 64.6427L6.32673 64.3273L6.32767 64.3274L6.4337 64.0014L6.43441 64.0016C6.61206 63.4482 6.8018 62.8277 7.0015 62.1418L6.9989 62.1408C7.15495 61.5708 7.29229 61.0459 7.41158 60.5628C7.55129 59.998 7.68625 59.4268 7.81598 58.8499C7.94501 58.2776 8.05885 57.6894 8.15753 57.087C8.25453 56.4932 8.33493 55.8957 8.39755 55.2944C8.40821 55.1811 8.4283 54.9562 8.45487 54.6334C8.47621 54.3697 8.494 54.1386 8.50727 53.9468C8.53716 53.5101 8.55234 53.0689 8.55234 52.6251C8.55234 52.146 8.50443 51.718 8.40885 51.3412C8.31801 50.982 8.18495 50.6686 8.01133 50.4021L8.00801 50.3988C7.85433 50.163 7.68094 49.9893 7.48812 49.8795H7.48479C7.2941 49.7705 7.07116 49.7119 6.81737 49.7051L6.00028 49.6837V48.8791V48.0148V47.186L6.83706 47.1858H22.5692L23.406 47.186L23.4062 48.0148V48.8791V49.6513L22.6249 49.7051L22.6076 49.7066C22.4985 49.7148 22.3946 49.7256 22.2974 49.7392C22.1939 49.7538 22.1036 49.7703 22.0274 49.7872C21.6802 49.8652 21.4437 49.9835 21.3204 50.1403L21.3185 50.1419L21.3209 50.144C21.2915 50.1814 21.2663 50.2178 21.2457 50.2524C21.2168 50.3013 21.1918 50.3471 21.1741 50.3866C21.0469 50.6689 20.9831 51.0528 20.9831 51.5365V67.5124H20.9798C20.9798 67.894 21.1243 68.1365 21.4129 68.2395C21.6952 68.3403 22.0044 68.4224 22.3393 68.4842C22.6773 68.5467 23.0378 68.5881 23.4192 68.6078L24.1044 68.6426L24.204 69.317L25.0439 75.0158L25.1831 75.9615H24.2168H23.377H22.7126L22.563 75.3172C22.5369 75.2048 22.5027 75.0854 22.4615 74.9601C22.42 74.8341 22.3709 74.7032 22.3149 74.5695L22.3151 74.5693L22.2684 74.4611L22.2669 74.4616L22.2069 74.3309L22.2093 74.3298C22.1191 74.1397 22.0127 73.9415 21.8888 73.737C21.8426 73.6627 21.7868 73.5814 21.7219 73.4935C21.6602 73.41 21.5945 73.3278 21.5262 73.2488C21.1529 72.8156 20.6574 72.4063 20.041 72.0222C19.642 71.7735 19.1525 71.585 18.5735 71.4567C17.9559 71.3203 17.2418 71.2519 16.4313 71.2519V71.2552H8.22606H8.22156V71.2519C7.63097 71.2521 7.06293 71.35 6.51836 71.5446C6.44673 71.57 6.35897 71.6048 6.25604 71.6482C5.80231 71.8394 5.35998 72.1028 4.93044 72.4378L4.92641 72.4406V72.4409C4.7777 72.5573 4.63847 72.6748 4.50968 72.7917C4.36358 72.9249 4.23763 73.0479 4.13398 73.1588C3.53842 73.7965 3.1115 74.5255 2.85345 75.3463L2.67793 75.9036L2.08521 75.9262L1.24537 75.9586L0.164062 76L0.402195 74.9509L0.402436 74.9506ZM43.0643 61.5021C43.0857 61.3018 43.1855 60.4222 43.2024 60.1865C43.2201 59.9422 43.232 59.7302 43.2386 59.5516C43.2446 59.3929 43.2474 59.1863 43.2474 58.9326C43.2474 57.5505 43.1227 56.35 42.8739 55.3329C42.6329 54.3482 42.2776 53.5316 41.8085 52.8836L41.802 52.8775L41.799 52.8735L41.7999 52.873C41.6657 52.6875 41.5257 52.5058 41.3806 52.3291C41.243 52.1614 41.0991 51.9972 40.9489 51.8375C40.2215 51.0628 39.4504 50.5139 38.6374 50.1912L38.6046 50.1785C38.2403 50.0161 37.8755 49.9028 37.5119 49.84C37.2973 49.8028 37.1099 49.7765 36.9505 49.762C36.7945 49.7478 36.6201 49.7406 36.428 49.7406L35.3636 49.8367C35.1842 49.8684 35.0004 49.9114 34.8147 49.9653C34.6347 50.017 34.4464 50.0819 34.2512 50.1594L34.2476 50.1609C34.0937 50.222 33.9395 50.2923 33.7863 50.3708L33.787 50.3722C33.6271 50.4547 33.4744 50.5424 33.3299 50.6348C32.5363 51.1418 31.787 51.8853 31.0833 52.8648C30.6123 53.5204 30.2556 54.3422 30.0146 55.3287C29.7658 56.348 29.641 57.5505 29.641 58.9327C29.641 60.3506 29.7914 61.6528 30.0914 62.8375C30.3872 64.0069 30.8315 65.0685 31.4227 66.0219L31.4239 66.0247H31.4243C31.588 66.2892 31.7576 66.5268 31.9305 66.7372C32.1108 66.957 32.2981 67.1546 32.491 67.3291C33.502 68.2451 34.8146 68.7037 36.4279 68.7037V68.7002C37.4898 68.7002 38.4022 68.5203 39.165 68.1614C39.905 67.8126 40.5181 67.2856 41.0038 66.5818L41.0053 66.5829L41.0089 66.5777V66.5747C41.1656 66.3474 41.3084 66.1267 41.4374 65.9132C41.5691 65.6949 41.6964 65.469 41.8181 65.2367C42.4305 64.0659 42.8461 62.8205 43.0643 61.5021ZM24.9632 58.8682C24.9632 57.3455 25.1425 55.9746 25.4999 54.7568C25.8645 53.5154 26.4128 52.4426 27.1464 51.5378L27.1458 51.5372L27.1484 51.5342L27.155 51.5276C27.3592 51.2765 27.5587 51.0434 27.7527 50.8294C27.9465 50.616 28.1528 50.4016 28.3706 50.1884L28.3689 50.187C29.45 49.1271 30.6129 48.322 31.8564 47.7727V47.7729L31.8569 47.7727C31.967 47.7229 32.0801 47.6735 32.1956 47.6253C32.3177 47.5741 32.4306 47.5287 32.5329 47.4892C33.1113 47.2671 33.687 47.0978 34.2586 46.9812L34.2723 46.9784C34.3665 46.9591 34.4747 46.9387 34.5942 46.9173C34.6995 46.8985 34.8046 46.8804 34.9073 46.8649C35.4549 46.78 35.9516 46.7377 36.3958 46.7377C37.0281 46.7377 37.7283 46.8122 38.4942 46.9617C38.8838 47.0379 39.2757 47.1376 39.6682 47.2603C40.0508 47.3804 40.4478 47.5277 40.8577 47.7019C41.7298 48.0705 42.5701 48.5717 43.3772 49.2042C44.1784 49.8316 44.9369 50.5789 45.6523 51.4441C46.4051 52.355 46.9696 53.441 47.3443 54.7011C47.71 55.9317 47.8931 57.3209 47.8931 58.8683V58.8744H47.8898C47.8893 60.6228 47.6828 62.1805 47.2708 63.5453C47.2055 63.7615 47.1311 63.983 47.0483 64.2079C46.6344 65.3327 46.0695 66.3186 45.3548 67.1633C44.5295 68.1398 43.659 68.9562 42.7454 69.6117C41.8216 70.2749 40.8475 70.7755 39.8235 71.1138L39.8167 71.1171C39.2389 71.3004 38.6585 71.4384 38.0772 71.5306C37.7691 71.5792 37.4838 71.6152 37.2236 71.6363C36.9392 71.6596 36.6626 71.6716 36.3958 71.6716C35.838 71.6716 35.2379 71.6128 34.598 71.4953C34.2878 71.4384 33.9768 71.3698 33.6673 71.2903C33.3665 71.2132 33.0582 71.1222 32.7423 71.0181L32.7065 71.0085C31.7286 70.639 30.7929 70.1157 29.9009 69.4392C29.0235 68.773 28.1889 67.9578 27.3979 66.9939L27.396 66.9896L27.395 66.9903C27.164 66.708 26.9496 66.4113 26.7521 66.1008C26.5578 65.7957 26.3771 65.4694 26.2101 65.1246C25.379 63.4089 24.9632 61.323 24.9632 58.8682Z" fill="#1A1A16"/>
</svg>
