<svg xmlns="http://www.w3.org/2000/svg" style="display: none;">

    <symbol id="menu-arrow" xmlns="http://www.w3.org/2000/svg" viewBox="0 0 13 22" fill="none" stroke="currentColor"><path d="M1 1l11 10L1 21"/></symbol>
    <symbol id="menu-back" xmlns="http://www.w3.org/2000/svg" viewBox="0 0 13 22" fill="none" stroke="currentColor"><path d="M12 1L1 11l11 10"/></symbol>

    <symbol id="fancy-close" xmlns="http://www.w3.org/2000/svg" viewBox="0 0 18 18" fill="none" stroke="currentColor"><path d="M1 17L17 1m0 16L1 1" stroke-linecap="square" stroke-linejoin="round"/></symbol>

    <symbol id="next-slider" xmlns="http://www.w3.org/2000/svg" viewBox="0 0 9 15" fill="none" stroke="currentColor"><path d="M1 1l7 6.5L1 14"/></symbol>
    <symbol id="prev-slider" xmlns="http://www.w3.org/2000/svg" viewBox="0 0 9 15" fill="none" stroke="currentColor"><path d="M8 1L1 7.5 8 14"/></symbol>

    <symbol id="select" xmlns="http://www.w3.org/2000/svg" viewBox="0 0 14 8" fill="none" stroke="currentColor"><path d="M1 1l6 6 6-6" stroke-linecap="round" stroke-linejoin="round"/></symbol>

    <symbol id="slider-next" xmlns="http://www.w3.org/2000/svg" viewBox="0 0 20 35" fill="none" stroke="currentColor"><path d="M1.23 1L19 17.5 1.23 34"/></symbol>
    <symbol id="slider-prev" xmlns="http://www.w3.org/2000/svg" viewBox="0 0 20 35" fill="none" stroke="currentColor"><path d="M18.77 1L1 17.5 18.77 34"/></symbol>

    <symbol id="icon-arrow-right" xmlns="http://www.w3.org/2000/svg" viewBox="0 0 20 20" fill="none" stroke="currentColor"><path d="M6.94446 15.4551L12.8272 10.4531C12.8991 10.3946 12.9563 10.3242 12.9954 10.2463C13.0345 10.1685 13.0547 10.0847 13.0547 9.99998C13.0547 9.91532 13.0345 9.8315 12.9954 9.75363C12.9563 9.67576 12.8991 9.60542 12.8272 9.54684L6.94446 4.54492" stroke-linecap="round" stroke-linejoin="round"/></symbol>
    <symbol id="icon-arrow-left" xmlns="http://www.w3.org/2000/svg" viewBox="0 0 21 20" fill="none" stroke="currentColor"><path d="M13.5555 4.54492L7.67284 9.54688C7.60091 9.60544 7.54368 9.67578 7.50457 9.75367C7.46547 9.83154 7.44531 9.91533 7.44531 10C7.44531 10.0847 7.46547 10.1685 7.50457 10.2464C7.54368 10.3242 7.60091 10.3946 7.67284 10.4532L13.5555 15.4551" stroke-linecap="round" stroke-linejoin="round"/></symbol>

    <symbol id="file-type-pdf" xmlns="http://www.w3.org/2000/svg" viewBox="0 0 32 32"><path fill="#909090" d="m24.1 2.072l5.564 5.8v22.056H8.879V30h20.856V7.945L24.1 2.072"/><path fill="#f4f4f4" d="M24.031 2H8.808v27.928h20.856V7.873L24.03 2"/><path fill="#7a7b7c" d="M8.655 3.5h-6.39v6.827h20.1V3.5H8.655"/><path fill="#dd2025" d="M22.472 10.211H2.395V3.379h20.077v6.832"/><path fill="#464648" d="M9.052 4.534H7.745v4.8h1.028V7.715L9 7.728a2.042 2.042 0 0 0 .647-.117a1.427 1.427 0 0 0 .493-.291a1.224 1.224 0 0 0 .335-.454a2.13 2.13 0 0 0 .105-.908a2.237 2.237 0 0 0-.114-.644a1.173 1.173 0 0 0-.687-.65a2.149 2.149 0 0 0-.409-.104a2.232 2.232 0 0 0-.319-.026m-.189 2.294h-.089v-1.48h.193a.57.57 0 0 1 .459.181a.92.92 0 0 1 .183.558c0 .246 0 .469-.222.626a.942.942 0 0 1-.524.114m3.671-2.306c-.111 0-.219.008-.295.011L12 4.538h-.78v4.8h.918a2.677 2.677 0 0 0 1.028-.175a1.71 1.71 0 0 0 .68-.491a1.939 1.939 0 0 0 .373-.749a3.728 3.728 0 0 0 .114-.949a4.416 4.416 0 0 0-.087-1.127a1.777 1.777 0 0 0-.4-.733a1.63 1.63 0 0 0-.535-.4a2.413 2.413 0 0 0-.549-.178a1.282 1.282 0 0 0-.228-.017m-.182 3.937h-.1V5.392h.013a1.062 1.062 0 0 1 .6.107a1.2 1.2 0 0 1 .324.4a1.3 1.3 0 0 1 .142.526c.009.22 0 .4 0 .549a2.926 2.926 0 0 1-.033.513a1.756 1.756 0 0 1-.169.5a1.13 1.13 0 0 1-.363.36a.673.673 0 0 1-.416.106m5.08-3.915H15v4.8h1.028V7.434h1.3v-.892h-1.3V5.43h1.4v-.892"/><path fill="#dd2025" d="M21.781 20.255s3.188-.578 3.188.511s-1.975.646-3.188-.511Zm-2.357.083a7.543 7.543 0 0 0-1.473.489l.4-.9c.4-.9.815-2.127.815-2.127a14.216 14.216 0 0 0 1.658 2.252a13.033 13.033 0 0 0-1.4.288Zm-1.262-6.5c0-.949.307-1.208.546-1.208s.508.115.517.939a10.787 10.787 0 0 1-.517 2.434a4.426 4.426 0 0 1-.547-2.162Zm-4.649 10.516c-.978-.585 2.051-2.386 2.6-2.444c-.003.001-1.576 3.056-2.6 2.444ZM25.9 20.895c-.01-.1-.1-1.207-2.07-1.16a14.228 14.228 0 0 0-2.453.173a12.542 12.542 0 0 1-2.012-2.655a11.76 11.76 0 0 0 .623-3.1c-.029-1.2-.316-1.888-1.236-1.878s-1.054.815-.933 2.013a9.309 9.309 0 0 0 .665 2.338s-.425 1.323-.987 2.639s-.946 2.006-.946 2.006a9.622 9.622 0 0 0-2.725 1.4c-.824.767-1.159 1.356-.725 1.945c.374.508 1.683.623 2.853-.91a22.549 22.549 0 0 0 1.7-2.492s1.784-.489 2.339-.623s1.226-.24 1.226-.24s1.629 1.639 3.2 1.581s1.495-.939 1.485-1.035"/><path fill="#909090" d="M23.954 2.077V7.95h5.633l-5.633-5.873Z"/><path fill="#f4f4f4" d="M24.031 2v5.873h5.633L24.031 2Z"/><path fill="#fff" d="M8.975 4.457H7.668v4.8H8.7V7.639l.228.013a2.042 2.042 0 0 0 .647-.117a1.428 1.428 0 0 0 .493-.291a1.224 1.224 0 0 0 .332-.454a2.13 2.13 0 0 0 .105-.908a2.237 2.237 0 0 0-.114-.644a1.173 1.173 0 0 0-.687-.65a2.149 2.149 0 0 0-.411-.105a2.232 2.232 0 0 0-.319-.026m-.189 2.294h-.089v-1.48h.194a.57.57 0 0 1 .459.181a.92.92 0 0 1 .183.558c0 .246 0 .469-.222.626a.942.942 0 0 1-.524.114m3.67-2.306c-.111 0-.219.008-.295.011l-.235.006h-.78v4.8h.918a2.677 2.677 0 0 0 1.028-.175a1.71 1.71 0 0 0 .68-.491a1.939 1.939 0 0 0 .373-.749a3.728 3.728 0 0 0 .114-.949a4.416 4.416 0 0 0-.087-1.127a1.777 1.777 0 0 0-.4-.733a1.63 1.63 0 0 0-.535-.4a2.413 2.413 0 0 0-.549-.178a1.282 1.282 0 0 0-.228-.017m-.182 3.937h-.1V5.315h.013a1.062 1.062 0 0 1 .6.107a1.2 1.2 0 0 1 .324.4a1.3 1.3 0 0 1 .142.526c.009.22 0 .4 0 .549a2.926 2.926 0 0 1-.033.513a1.756 1.756 0 0 1-.169.5a1.13 1.13 0 0 1-.363.36a.673.673 0 0 1-.416.106m5.077-3.915h-2.43v4.8h1.028V7.357h1.3v-.892h-1.3V5.353h1.4v-.892"/></symbol>

    <symbol id="icon-map-marker" xmlns="http://www.w3.org/2000/svg" viewBox="0 0 32 32" fill="none">
        <path d="M26.2836 11.4283C26.2836 18.2854 15.9979 26.2854 15.9979 26.2854C15.9979 26.2854 5.71222 18.2854 5.71222 11.4283C5.71222 5.82601 10.3956 1.14258 15.9979 1.14258C21.6002 1.14258 26.2836 5.82601 26.2836 11.4283Z" stroke="#1A1A16" stroke-width="1.33333" stroke-linecap="round" stroke-linejoin="round"/>
        <path d="M16.0002 14.8571C17.8937 14.8571 19.4287 13.3221 19.4287 11.4286C19.4287 9.53502 17.8937 8 16.0002 8C14.1066 8 12.5716 9.53502 12.5716 11.4286C12.5716 13.3221 14.1066 14.8571 16.0002 14.8571Z" stroke="#1A1A16" stroke-width="1.33333" stroke-linecap="round" stroke-linejoin="round"/>
        <path d="M25.3186 22.8574H27.4276L30.8562 30.8574H1.14191L4.57048 22.8574H6.67951" stroke="#1A1A16" stroke-width="1.33333" stroke-linecap="round" stroke-linejoin="round"/>
    </symbol>

</svg>