<?xml version="1.0" encoding="UTF-8"?>
<!DOCTYPE svg PUBLIC "-//W3C//DTD SVG 1.1//EN" "http://www.w3.org/Graphics/SVG/1.1/DTD/svg11.dtd">
<!-- Creator: CorelDRAW -->
<svg xmlns="http://www.w3.org/2000/svg" xml:space="preserve" width="52.8746mm" height="52.8746mm" version="1.1" style="shape-rendering:geometricPrecision; text-rendering:geometricPrecision; image-rendering:optimizeQuality; fill-rule:evenodd; clip-rule:evenodd"
viewBox="0 0 7500.63 7500.63"
 xmlns:xlink="http://www.w3.org/1999/xlink"
 xmlns:xodm="http://www.corel.com/coreldraw/odm/2003">
 <defs>
  <style type="text/css">
   <![CDATA[
    .fil1 {fill:none;fill-rule:nonzero}
    .fil0 {fill:#A4A5A5}
    .fil2 {fill:white;fill-rule:nonzero}
   ]]>
  </style>
 </defs>
 <g id="Слой_x0020_1">
  <metadata id="CorelCorpID_0Corel-Layer"/>
  <circle class="fil0" cx="3750.31" cy="3750.31" r="3750.31"/>
  <g id="_2380743458368">
   <g>
    <path class="fil1" d="M3848.34 1462.12c-1240.14,0 -2245.55,1005.5 -2245.55,2245.58 0,521.25 179.15,999.52 477.05,1380.59l-150.04 773.02 729.3 -251.37c345.12,216.4 751.98,343.35 1189.23,343.35 1240.24,0 2245.81,-1005.42 2245.81,-2245.65 0.01,-1240.03 -1005.58,-2245.52 -2245.79,-2245.52z"/>
    <path class="fil2" d="M3848.34 6133.82c-424.58,0 -841.11,-112.41 -1209.95,-325.73l-945.21 325.73 194.16 -1000.98c-304.45,-417.39 -465.01,-908.25 -465.01,-1425.12 0,-1337.72 1088.31,-2426.04 2426.02,-2426.04 1337.82,0 2426.14,1088.31 2426.14,2426.04 -0.03,1337.77 -1088.34,2426.11 -2426.15,2426.11zm-1166.42 -722.48l73.11 45.76c329.43,206.56 707.55,315.73 1093.28,315.73 1138.84,0 2065.24,-926.4 2065.24,-2065.14 0,-1138.64 -926.4,-2065.04 -2065.24,-2065.04 -1138.64,0 -2065.04,926.4 -2065.04,2065.04 0,463.29 151.77,902.29 438.64,1269.42l50.74 64.86 -106.18 546.93 515.45 -177.56z"/>
   </g>
   <path class="fil2" d="M2623.6 2775.6c0,0 142.44,-248.82 258.42,-263.03 116.05,-14.27 265.49,-14.27 305.72,61.58 40.33,75.79 220.35,516.67 220.35,516.67 0,0 30.92,75.84 -16.47,149.33 -47.39,73.44 -154.04,180.04 -154.04,180.04 0,0 -59.25,75.84 0,156.45 59.25,80.5 151.16,228.66 341.31,418.59 189.82,190.06 554.42,325.58 554.42,325.58 0,0 52.2,7.06 85.44,-26.07 33.08,-33.17 213.3,-258.32 213.3,-258.32 0,0 57.79,-74.6 153.93,-30.8 95.95,43.82 511.85,251.2 511.85,251.2 0,0 48.64,17.73 48.64,91.2 0,73.43 -29.72,253.21 -90.5,313.97 -60.81,60.84 -238.46,248.18 -505.58,248.18 -267.05,0 -902.99,-217.32 -1241.89,-556.14 -338.88,-338.97 -639.79,-682.66 -710.8,-995.37 -71.16,-312.85 -61.61,-454.23 25.92,-583.07z"/>
  </g>
 </g>
</svg>
